<svg xmlns="http://www.w3.org/2000/svg" width="162.031" height="34.938" viewBox="0 0 162.031 34.938">
  <defs>
    <style>
      .cls-1 {
        fill: #ffc600;
        fill-rule: evenodd;
      }
    </style>
  </defs>
  <path id="logo" class="cls-1" d="M0.975,1.087v33.6h13.44a15.56,15.56,0,0,0,11.64-4.824,16.523,16.523,0,0,0,4.68-11.976,16.524,16.524,0,0,0-4.68-11.976,15.56,15.56,0,0,0-11.64-4.824H0.975Zm7.68,26.208V8.479h5.76a8.559,8.559,0,0,1,6.456,2.568,9.449,9.449,0,0,1,2.472,6.84,9.447,9.447,0,0,1-2.472,6.84,8.557,8.557,0,0,1-6.456,2.568H8.655Zm34.56-5.952h12v-7.3h-12V8.479h13.2V1.087H35.535v33.6h21.12V27.295H43.215V21.343Zm36.1,13.344,10.944-33.6h-8.4l-7.44,24.72-7.44-24.72h-8.4l10.944,33.6h9.792Zm14.3,0h7.68V1.087h-7.68v33.6Zm38.352-1.416a15.449,15.449,0,0,0,6-5.688l-6.624-3.84a7.457,7.457,0,0,1-3.144,3.024,9.749,9.749,0,0,1-4.632,1.1,9.493,9.493,0,0,1-7.128-2.736,9.945,9.945,0,0,1-2.664-7.248,9.946,9.946,0,0,1,2.664-7.248A9.493,9.493,0,0,1,123.566,7.9a9.787,9.787,0,0,1,4.608,1.08,7.566,7.566,0,0,1,3.168,3.048l6.624-3.84A15.8,15.8,0,0,0,131.918,2.5,17.2,17.2,0,0,0,123.566.415a17.061,17.061,0,0,0-17.472,17.472,17.061,17.061,0,0,0,17.472,17.472A17.3,17.3,0,0,0,131.966,33.271Zm17.76-11.928h12v-7.3h-12V8.479h13.2V1.087h-20.88v33.6h21.12V27.295h-13.44V21.343Z" transform="translate(-0.969 -0.406)"/>
</svg>
