<svg xmlns="http://www.w3.org/2000/svg" width="1064" height="232" viewBox="0 0 1064 232">
  <defs>
    <style>
      .cls-1 {
        fill-rule: evenodd;
      }
    </style>
  </defs>
  <path id="DEVICE" class="cls-1" d="M165.32,15.6V66h20.16a23.341,23.341,0,0,0,17.46-7.236A24.784,24.784,0,0,0,209.96,40.8a24.786,24.786,0,0,0-7.02-17.964A23.341,23.341,0,0,0,185.48,15.6H165.32Zm11.52,39.312V26.688h8.64a12.839,12.839,0,0,1,9.684,3.852q3.708,3.853,3.708,10.26t-3.708,10.26a12.834,12.834,0,0,1-9.684,3.852h-8.64Zm51.839-8.928h18V35.04h-18V26.688h19.8V15.6h-31.32V66h31.68V54.912h-20.16V45.984ZM282.823,66l16.416-50.4h-12.6l-11.16,37.08L264.319,15.6h-12.6L268.135,66h14.688Zm21.455,0H315.8V15.6h-11.52V66Zm57.528-2.124a23.173,23.173,0,0,0,9-8.532l-9.936-5.76a11.184,11.184,0,0,1-4.716,4.536,14.622,14.622,0,0,1-6.948,1.656q-6.7,0-10.692-4.1t-4-10.872q0-6.767,4-10.872t10.692-4.1a14.68,14.68,0,0,1,6.912,1.62,11.349,11.349,0,0,1,4.752,4.572l9.936-5.76a23.707,23.707,0,0,0-9.072-8.532,25.806,25.806,0,0,0-12.528-3.132A25.591,25.591,0,0,0,323,40.8a25.493,25.493,0,0,0,7.452,18.684q7.452,7.525,18.756,7.524A25.95,25.95,0,0,0,361.806,63.876Zm26.64-17.892h18V35.04h-18V26.688h19.8V15.6h-31.32V66h31.68V54.912h-20.16V45.984Z"/>
</svg>
